<?xml version="1.0" encoding="UTF-8" standalone="no"?>
<svg
   width="2087.9951"
   height="921.66895"
   viewBox="0 0 2087.9951 921.66895"
   version="1.1"
   id="svg1"
   sodipodi:docname="ifes-logo-v6-grey.svg"
   xml:space="preserve"
   inkscape:version="1.3.2 (091e20e, 2023-11-25, custom)"
   xmlns:inkscape="http://www.inkscape.org/namespaces/inkscape"
   xmlns:sodipodi="http://sodipodi.sourceforge.net/DTD/sodipodi-0.dtd"
   xmlns="http://www.w3.org/2000/svg"
   xmlns:svg="http://www.w3.org/2000/svg"><defs
     id="defs1"><pattern
       id="EMFhbasepattern"
       patternUnits="userSpaceOnUse"
       width="6"
       height="6"
       x="0"
       y="0" /><pattern
       id="EMFhbasepattern-0"
       patternUnits="userSpaceOnUse"
       width="6"
       height="6"
       x="0"
       y="0" /></defs><sodipodi:namedview
     id="namedview1"
     pagecolor="#ffffff"
     bordercolor="#000000"
     borderopacity="0.25"
     inkscape:showpageshadow="2"
     inkscape:pageopacity="0.0"
     inkscape:pagecheckerboard="true"
     inkscape:deskcolor="#d1d1d1"
     inkscape:zoom="0.53902066"
     inkscape:cx="776.40809"
     inkscape:cy="555.63733"
     inkscape:window-width="1920"
     inkscape:window-height="1009"
     inkscape:window-x="-8"
     inkscape:window-y="-8"
     inkscape:window-maximized="1"
     inkscape:current-layer="svg1" /><path
     style="fill:#c0ad19;fill-opacity:1"
     d="m 485.96615,843.1628 c -19.84736,-1.87186 -46.99149,-7.4519 -71.58197,-14.71517 -22.39824,-6.61574 -56.96317,-21.68904 -77.02471,-33.58943 -1.94674,-1.15479 -4.30076,-2.54983 -5.23117,-3.10008 -22.8531,-13.51563 -63.75004,-45.12503 -62.62504,-48.40313 0.19957,-0.58151 2.88103,-3.20985 5.9588,-5.84075 6.65184,-5.68603 20.82057,-18.13147 26.37158,-23.16411 2.17501,-1.9719 7.39464,-6.52159 11.59917,-10.11041 8.32289,-7.1041 22.14434,-19.21677 28.41936,-24.9058 2.175,-1.9719 7.39463,-6.52159 11.59917,-10.11042 8.32289,-7.10409 22.14433,-19.21676 28.41935,-24.9058 2.17501,-1.9719 7.39464,-6.52158 11.59917,-10.11041 8.32289,-7.10409 22.14434,-19.21676 28.41936,-24.9058 2.17501,-1.9719 7.39463,-6.52158 11.59917,-10.11041 4.20453,-3.58883 11.42915,-9.86429 16.0547,-13.94547 4.62555,-4.08118 11.33645,-9.987 14.9131,-13.12404 3.57666,-3.13704 10.2773,-9.02717 14.89032,-13.08917 4.61301,-4.062 9.61954,-8.38541 11.1256,-9.60758 l 2.73831,-2.22212 1.02796,15.22814 c 0.56538,8.37548 1.95359,30.53524 3.0849,49.2439 1.13131,18.70866 2.52688,38.06762 3.10127,43.01992 0.57439,4.95229 1.72368,22.28531 2.55399,38.51783 0.8303,16.23252 1.9496,32.89023 2.48733,37.01714 0.53772,4.12691 1.66962,21.23483 2.51533,38.0176 0.8457,16.78277 1.79441,31.86475 2.10823,33.51552 0.31382,1.65076 1.0981,11.893 1.74284,22.76054 l 1.17226,19.75914 -9.0171,-0.13521 c -4.95941,-0.0744 -13.06899,-0.51735 -18.02128,-0.98442 z m 54.55613,-5.63349 c 0.017,-3.71422 0.43829,-9.90459 0.93622,-13.75637 0.49793,-3.85178 1.616,-19.83418 2.48459,-35.51645 0.86859,-15.68226 2.0049,-32.79018 2.52514,-38.0176 0.52024,-5.22742 1.6362,-21.88513 2.47992,-37.01714 0.84372,-15.132 1.98261,-32.23992 2.53087,-38.0176 0.54826,-5.77767 1.66844,-22.43539 2.48929,-37.01714 0.82086,-14.58175 1.99582,-32.13988 2.61103,-39.01806 0.61521,-6.87819 1.63663,-21.42124 2.26982,-32.31791 l 1.15126,-19.81212 5.50255,4.65882 c 6.32322,5.35365 17.1509,14.8825 24.47358,21.53786 2.77205,2.51943 9.76727,8.62339 15.54495,13.56436 5.77767,4.94097 12.30569,10.59206 14.50671,12.55797 2.20102,1.96592 10.07967,8.86804 17.50811,15.33805 7.42844,6.47002 16.4326,14.34829 20.00926,17.50729 3.57665,3.15899 12.58082,11.03764 20.00926,17.50811 7.42844,6.47046 16.43261,14.34911 20.00927,17.5081 3.57665,3.159 12.58082,11.03764 20.00926,17.50811 7.42844,6.47046 16.43261,14.34911 20.00926,17.5081 3.57666,3.159 12.58083,11.03765 20.00926,17.50811 7.42844,6.47046 16.57612,14.50512 20.32817,17.85479 l 6.82192,6.0903 -5.2106,4.89259 c -9.89326,9.28945 -36.01669,29.17171 -48.45176,36.87611 -2.75127,1.70461 -6.57804,4.11089 -8.50394,5.3473 -13.45037,8.63505 -39.10284,21.19324 -59.02732,28.8969 -22.87951,8.8462 -38.91467,13.52221 -60.52802,17.65057 -5.50255,1.05104 -12.03057,2.39552 -14.50672,2.98773 -5.96508,1.42665 -31.63464,3.89597 -40.76887,3.92182 l -7.25336,0.0205 z M 484.46545,378.02955 c -4.67716,-4.02819 -11.60625,-10.05728 -15.39798,-13.39799 -15.76302,-13.88804 -26.83062,-23.59098 -36.59875,-32.08606 -5.69444,-4.95229 -14.69861,-12.83094 -20.00927,-17.5081 -5.31066,-4.67717 -14.31482,-12.55582 -20.00926,-17.50811 -5.69444,-4.95229 -14.6986,-12.83094 -20.00926,-17.50811 -5.31066,-4.67716 -14.31483,-12.55581 -20.00927,-17.5081 -5.69443,-4.9523 -14.6986,-12.83094 -20.00926,-17.50811 -5.31066,-4.67717 -14.31483,-12.55581 -20.00926,-17.50811 -11.98868,-10.42621 -27.98478,-24.661 -33.04263,-29.40434 -1.92589,-1.80613 -4.9648,-4.42387 -6.75313,-5.81719 -1.78833,-1.39333 -3.2515,-3.01565 -3.2515,-3.60516 0,-3.87946 40.81716,-35.23489 62.76242,-48.21361 0.93041,-0.55026 3.28443,-1.9453 5.23117,-3.10009 20.06154,-11.90038 54.62647,-26.97368 77.02471,-33.58943 30.77657,-9.090447 59.02456,-14.252587 84.60906,-15.46177 l 14.02756,-0.662974 -1.1804,19.904124 c -0.64921,10.94726 -1.43715,21.25474 -1.75097,22.9055 -0.31382,1.65077 -1.26253,16.73275 -2.10823,33.51552 -0.84571,16.78277 -1.97839,33.8907 -2.51707,38.01761 -0.53869,4.12691 -1.6525,21.00973 -2.47513,37.51737 -0.82263,16.50765 -1.94622,33.39046 -2.49687,37.51737 -0.55064,4.12691 -1.68165,20.78463 -2.51336,37.01714 -0.83171,16.23252 -1.97534,33.56555 -2.54141,38.51784 -0.56606,4.95229 -1.35293,14.35795 -1.74859,20.90146 l -0.71938,11.89729 z m 74.59566,-8.21679 c -0.39527,-8.39139 -1.11216,-19.53405 -1.59308,-24.76147 -0.48091,-5.22742 -1.78866,-25.03659 -2.90609,-44.02038 -1.11743,-18.98379 -2.27707,-35.86661 -2.57697,-37.51737 -0.29991,-1.65076 -1.43498,-18.30848 -2.52237,-37.01714 -1.0874,-18.70866 -2.42884,-38.74294 -2.98098,-44.52062 -0.55213,-5.77767 -1.70552,-23.1107 -2.56307,-38.51783 -0.85756,-15.40714 -1.96558,-31.16443 -2.46229,-35.01622 -0.4967,-3.85178 -0.91699,-10.042145 -0.93398,-13.756364 l -0.0309,-6.753127 7.25336,0.02053 c 9.13423,0.02585 34.80379,2.495165 40.76887,3.921812 2.47615,0.592212 9.00417,1.936691 14.50672,2.987732 36.5747,6.986127 73.6063,20.719247 108.83902,40.362797 9.39227,5.23654 33.33156,21.00358 41.67164,27.44603 7.41199,5.72553 17.95701,14.23978 20.02854,16.17143 1.39751,1.30313 4.45431,3.94607 6.79289,5.87318 2.33858,1.92712 4.25197,3.80097 4.25197,4.16411 0,0.36314 -3.47739,3.57292 -7.72753,7.13284 -4.25015,3.55992 -8.4272,7.1479 -9.28234,7.97328 -0.85515,0.82538 -8.97062,7.97469 -18.0344,15.88734 -9.06377,7.91265 -19.40594,16.96279 -22.98259,20.11142 -3.57666,3.14863 -12.58083,11.02819 -20.00927,17.51013 -7.42844,6.48195 -16.4326,14.36059 -20.00926,17.50811 -3.57666,3.14751 -12.58082,11.02616 -20.00926,17.5081 -7.42844,6.48195 -16.43261,14.3606 -20.00927,17.50811 -3.57665,3.14751 -12.58082,11.02616 -20.00926,17.50811 -16.76178,14.62607 -24.03204,20.99298 -35.51853,31.10521 -4.95344,4.36081 -12.15678,10.61671 -16.00741,13.902 -3.85063,3.28528 -8.56376,7.44971 -10.4736,9.25428 -1.90985,1.80457 -3.76032,3.28103 -4.11217,3.28103 -0.35184,0 -0.96312,-6.86568 -1.3584,-15.25706 z"
     id="path7" /><path
     style="fill:#888f91;fill-opacity:1"
     d="m 241.30515,715.42971 c -7.91752,-9.27946 -15.15895,-18.21275 -18.40687,-22.70739 -1.10051,-1.52295 -3.36509,-4.63685 -5.0324,-6.9198 -22.53741,-30.85903 -41.71817,-70.14107 -54.78578,-112.20083 -1.36767,-4.40204 -3.01639,-10.70496 -3.66382,-14.00649 -0.64743,-3.30152 -1.79182,-8.02871 -2.54309,-10.50486 -0.75127,-2.47615 -1.88224,-7.87865 -2.51327,-12.00556 -0.63103,-4.12691 -1.77537,-10.88003 -2.54299,-15.00694 -1.43507,-7.71537 -3.45315,-29.67297 -3.45315,-37.57187 v -4.44759 h 4.82475 c 2.65362,0 11.77034,0.66368 20.25938,1.47484 8.48904,0.81117 28.69552,2.19227 44.90328,3.06911 16.20776,0.87685 29.76785,1.77918 30.13354,2.00519 0.36569,0.22601 17.04366,1.33679 37.06215,2.46839 20.01849,1.1316 37.08948,2.26682 37.93554,2.52271 0.84606,0.25589 17.14711,1.35914 36.22455,2.45166 19.07745,1.09252 38.6446,2.4168 43.48256,2.94284 4.83796,0.52604 15.99962,1.264 24.8037,1.6399 8.80407,0.37591 16.33145,0.87063 16.7275,1.09939 0.61587,0.35573 -8.26358,11.06605 -21.42862,25.84705 -1.96039,2.20102 -8.85799,10.07966 -15.328,17.5081 -6.47001,7.42844 -14.34829,16.43261 -17.50729,20.00926 -3.15899,3.57666 -11.03764,12.58083 -17.5081,20.00927 -6.47046,7.42844 -14.34911,16.43261 -17.50811,20.00926 -3.15899,3.57666 -11.03764,12.58083 -17.5081,20.00926 -13.84415,15.89383 -20.19776,23.12668 -31.63844,36.01668 -4.63967,5.22742 -10.91439,12.43075 -13.94382,16.00741 -3.02944,3.57665 -7.28961,8.50076 -9.46705,10.94246 -13.45657,15.08971 -20.73436,23.40267 -25.8933,29.5763 -3.21871,3.85178 -6.39913,7.32589 -7.06759,7.72024 -0.77283,0.45592 -3.9106,-2.44183 -8.61716,-7.95799 z m 549.87045,-5.98564 c -7.08444,-8.13249 -13.36439,-15.23655 -13.95544,-15.7868 -0.59105,-0.55026 -3.77389,-4.13942 -7.07297,-7.97592 -9.88187,-11.49159 -27.8414,-32.00664 -28.48904,-32.54284 -0.33231,-0.27513 -3.47766,-3.8768 -6.98966,-8.00371 -3.512,-4.12691 -7.61691,-8.8541 -9.12201,-10.50486 -1.5051,-1.65076 -6.22461,-7.05327 -10.48779,-12.00556 -4.26318,-4.95229 -8.03692,-9.22927 -8.38609,-9.5044 -0.34917,-0.27512 -3.48069,-3.87679 -6.95894,-8.0037 -3.47825,-4.12691 -6.83585,-7.95368 -7.46135,-8.50394 -0.6255,-0.55025 -5.14942,-5.72765 -10.05314,-11.50533 -4.90373,-5.77767 -9.41932,-10.95507 -10.03465,-11.50532 -0.61533,-0.55026 -3.97007,-4.37703 -7.45497,-8.50394 -3.4849,-4.12691 -6.84796,-7.95368 -7.47345,-8.50394 -0.6255,-0.55025 -5.16342,-5.72765 -10.08426,-11.50532 -4.92084,-5.77768 -9.43643,-10.95507 -10.03465,-11.50533 -0.59821,-0.55025 -3.93895,-4.37702 -7.42385,-8.50394 -3.4849,-4.12691 -6.84796,-7.95829 -7.47345,-8.51419 -3.70152,-3.28961 -13.688,-15.61529 -13.23961,-16.3408 0.29435,-0.47627 7.63988,-1.17797 16.32339,-1.55932 8.68351,-0.38136 19.74654,-1.12872 24.5845,-1.6608 4.83795,-0.53209 24.4051,-1.86131 43.48255,-2.95383 19.07745,-1.09252 35.3785,-2.19577 36.22455,-2.45166 0.84606,-0.25589 17.91706,-1.39111 37.93555,-2.52271 20.01848,-1.1316 36.69645,-2.24238 37.06214,-2.46839 0.36569,-0.22601 13.92579,-1.12908 30.13355,-2.00683 16.20776,-0.87774 36.72763,-2.25884 45.59973,-3.0691 8.87209,-0.81027 18.0573,-1.47321 20.41157,-1.47321 h 4.2805 l -0.69862,13.25614 c -1.37917,26.16932 -6.47173,55.03866 -14.25092,80.7874 -3.42889,11.34946 -8.53412,26.27075 -9.41332,27.51274 -0.38952,0.55025 -1.03868,2.12598 -1.44257,3.50162 -1.98175,6.7498 -14.71302,33.93217 -21.15223,45.16186 -2.00641,3.4991 -4.15974,7.26241 -4.78517,8.36292 -0.62544,1.10051 -2.3637,3.90536 -3.86279,6.23301 -1.4991,2.32765 -2.72564,4.65372 -2.72564,5.16906 0,0.51533 -0.34871,1.08704 -0.77491,1.27046 -0.4262,0.18342 -2.75241,3.25984 -5.16934,6.8365 -2.41693,3.57665 -5.33223,7.84747 -6.47844,9.4907 -3.99589,5.72857 -22.04165,28.05855 -26.10954,32.30815 l -4.09841,4.28148 z M 148.82132,440.09519 c 1.35671,-24.1272 6.66167,-55.68509 12.62282,-75.09007 0.59163,-1.92589 1.91625,-6.42798 2.9436,-10.00463 7.26338,-25.28693 24.35288,-63.6326 37.45357,-84.03891 1.23641,-1.92589 3.64875,-5.75266 5.36076,-8.50393 4.37707,-7.03414 15.19757,-22.42795 20.0423,-28.5132 5.97614,-7.50638 18.17759,-21.76965 20.04764,-23.43531 l 2.1616,-1.92536 5.32605,5.92721 c 2.92932,3.25996 10.61329,12.00502 17.07548,19.43346 6.46219,7.42844 14.33768,16.4326 17.50109,20.00926 3.1634,3.57666 11.04205,12.58082 17.5081,20.00926 6.46606,7.42844 14.3447,16.43261 17.50811,20.00927 3.1634,3.57665 11.04205,12.58082 17.5081,20.00926 6.46606,7.42844 14.34686,16.43261 17.5129,20.00926 3.16604,3.57666 12.333,14.0316 20.37102,23.23321 8.03801,9.20161 15.92481,18.20578 17.52621,20.00927 1.6014,1.80348 9.48005,10.80765 17.50811,20.00926 8.02805,9.20161 15.92129,18.20578 17.54053,20.00926 1.61923,1.80349 5.23491,5.98032 8.03485,9.28184 l 5.09079,6.00278 -10.23656,0.70105 c -5.6301,0.38558 -19.01562,1.40626 -29.74558,2.2682 -10.72997,0.86193 -31.88977,2.24931 -47.02177,3.08307 -15.13201,0.83375 -28.18805,1.71158 -29.01343,1.95072 -0.82539,0.23913 -17.7082,1.36168 -37.51737,2.49454 -19.80917,1.13286 -36.69199,2.25895 -37.51737,2.50241 -0.82538,0.24347 -14.10653,1.1355 -29.51366,1.98229 -15.40714,0.8468 -35.89162,2.19597 -45.52108,2.99818 -9.62945,0.8022 -20.60298,1.61176 -24.38562,1.79901 l -6.87752,0.34047 z m 748.88935,12.28309 c -3.0264,-0.16361 -13.60629,-0.97621 -23.51088,-1.80578 -9.90458,-0.82957 -30.61417,-2.20246 -46.0213,-3.05088 -15.40714,-0.84842 -28.68828,-1.74178 -29.51367,-1.98525 -0.82538,-0.24346 -17.70819,-1.36955 -37.51736,-2.50241 -19.80918,-1.13286 -36.69199,-2.25478 -37.51737,-2.49316 -0.82539,-0.23837 -13.65632,-1.11375 -28.5132,-1.94528 -14.85688,-0.83154 -36.01668,-2.21901 -47.02177,-3.08329 -11.0051,-0.86427 -24.57205,-1.8874 -30.14879,-2.27363 l -10.13953,-0.70222 9.9799,-11.50532 c 5.48895,-6.32793 12.3721,-14.20658 15.29589,-17.50811 2.92379,-3.30153 10.60951,-12.08059 17.07938,-19.50903 6.46987,-7.42844 14.35163,-16.43261 17.51503,-20.00926 3.16341,-3.57666 11.04206,-12.58083 17.50811,-20.00927 6.46605,-7.42843 14.3447,-16.4326 17.50811,-20.00926 3.1634,-3.57665 11.04205,-12.58082 17.5081,-20.00926 12.07623,-13.87362 18.02475,-20.65658 31.95575,-36.43841 4.40962,-4.99547 9.54064,-10.8835 11.40228,-13.08452 1.86164,-2.20102 5.97165,-6.92821 9.13335,-10.50486 16.1876,-18.31212 23.81328,-26.97549 27.10848,-30.79734 2.00064,-2.32038 4.08569,-4.21887 4.63346,-4.21887 0.54777,0 2.113,1.46318 3.47829,3.2515 1.3653,1.78833 3.87846,4.74472 5.58481,6.56976 3.06662,3.27993 12.80611,15.3013 16.68167,20.59005 9.6262,13.13629 9.59924,13.09739 14.63284,21.11254 1.72782,2.75127 3.92249,6.14165 4.87704,7.53417 0.95454,1.39252 2.70899,4.31887 3.89877,6.50301 1.18978,2.18414 3.31908,5.9971 4.73178,8.47324 3.14696,5.51593 14.37926,27.73297 14.37926,28.44161 0,0.28189 1.05526,2.88946 2.34502,5.79461 1.28976,2.90514 2.94094,6.85781 3.66929,8.7837 0.72836,1.92589 1.64468,3.95183 2.03629,4.50208 0.39161,0.55026 1.48423,3.70172 2.42805,7.00324 0.94382,3.30153 2.05962,6.45299 2.47955,7.00325 0.41993,0.55025 1.57726,4.15192 2.57184,8.0037 0.99457,3.85178 2.12618,7.45345 2.51467,8.00371 0.3885,0.55025 1.46325,4.60213 2.38833,9.00416 0.92508,4.40204 2.09042,8.90413 2.58965,10.00464 3.78962,8.35401 11.29567,73.94397 8.39398,73.34897 -0.4964,-0.10179 -3.37869,-0.31893 -6.4051,-0.48253 z"
     id="path8" /><path
     style="fill:#3d4a53;fill-opacity:1"
     d="m 1652.9123,415.94232 c -13.9453,-2.03645 -30.2009,-6.94823 -45.6964,-13.80759 l -5.75,-2.54535 v -33.99979 -33.99978 l 10.0527,5.96909 c 11.4921,6.8238 24.2915,12.74782 34.4473,15.94349 8.6773,2.73044 24.6403,3.71241 32.8027,2.01789 10.0279,-2.08178 16.3229,-10.39158 14.23,-18.78438 -1.1927,-4.78289 -9.4471,-11.39929 -24.5656,-19.69077 -16.6885,-9.1525 -19.7401,-11.03301 -29.9671,-18.46691 -20.7955,-15.11605 -32.0727,-30.52232 -35.5163,-48.5203 -7.4976,-39.18665 16.7606,-75.17274 57.7244,-85.63173 21.9886,-5.61419 51.0498,-3.93537 73.2919,4.23398 9.4972,3.48823 22.8346,10.42628 29.6243,15.41037 l 4.8757,3.57912 v 32.54299 32.54299 l -3.25,-2.61802 c -26.1077,-21.03101 -42.2546,-28.64637 -60.7101,-28.63272 -10.3069,0.008 -14.7993,1.43923 -19.2899,6.14715 -3.3517,3.51395 -3.7496,4.48458 -3.7462,9.13938 0.01,10.82243 4.5103,14.8385 35.4962,31.66116 48.8207,26.50536 60.964,41.45378 60.964,75.04673 0,14.23932 -2.1932,23.95691 -7.7699,34.42618 -10.7269,20.138 -34.5471,33.99053 -65.5444,38.11704 -13.0783,1.74104 -39.5124,1.70003 -51.7033,-0.0802 z m -633.4464,-126.463 v -124 h 43 43 v 124 124 h -43 -43 z m 134,0.0109 v -124.0109 h 90.5 90.5 v 27 27 h -48 -48 v 22.5 22.5 h 45.5 45.5 v 25.98981 25.98981 l -45.25,0.26019 -45.25,0.26019 -0.5,48 -0.5,48 -42.25,0.26086 -42.25,0.26085 z m 224,-0.006 v -124.0049 h 91.0164 91.0163 l -0.2663,26.75 -0.2664,26.75 -47.75,0.2597 -47.75,0.2597 v 21.4903 21.4903 h 46 46 v 26 26 h -46 -46 v 23 23 h 49.5166 49.5166 l -0.2666,26.25 -0.2666,26.25 -92.25,0.25521 -92.25,0.25521 z"
     id="path9" /><path
     style="fill:#3d4a53;fill-opacity:1"
     d="m 1044.1997,768.86191 c -15.0268,-3.10986 -22.7916,-12.15828 -23.7605,-27.68855 l -0.5267,-8.44264 8.3936,0.29276 8.3936,0.29277 0.6902,6.25747 c 1.1856,10.74785 5.2987,15.59523 14.9962,17.67309 4.5023,0.96469 12.6595,-1.35634 16.4435,-4.67878 4.558,-4.00195 6.371,-7.69033 6.3664,-12.95212 -0.01,-8.05238 -5.3169,-13.78586 -24.9963,-26.99027 -7.425,-4.98201 -15.548,-10.7692 -18.0511,-12.86041 -13.3861,-11.18332 -14.6491,-31.69706 -2.7021,-43.88781 6.7049,-6.84165 13.2374,-9.33498 25.7532,-9.82941 9.0378,-0.35703 11.3356,-0.10528 16.5,1.80782 11.3066,4.18834 18.5,14.71617 18.5,27.07525 v 4.88517 h -8 -8 l -0.01,-3.75 c -0,-2.0625 -1.1171,-6.12857 -2.4705,-9.03571 -1.9966,-4.2886 -3.2681,-5.6521 -6.7402,-7.22803 -12.5064,-5.67633 -27.7795,2.36098 -27.7795,14.61867 0,7.1649 9.3292,16.98704 27.5,28.95286 15.055,9.91406 23.8646,18.37486 25.5232,24.51274 1.7588,6.50872 0.8046,18.58807 -1.9117,24.19904 -4.2191,8.7156 -12.5903,14.73512 -23.322,16.77035 -5.721,1.08495 -15.5616,1.08767 -20.7895,0.006 z m 90.746,-0.0644 c -10.4538,-2.65022 -17.9145,-8.79425 -22.4418,-18.48128 l -2.8042,-6 -0.2948,-48.25 -0.2949,-48.25 h 6.9734 6.9734 l 0.3716,45.75 c 0.4041,49.74382 0.4271,49.95362 6.1554,56.08531 4.0315,4.3154 7.164,5.90319 13.2349,6.70853 9.9196,1.31588 18.9529,-3.22476 22.7498,-11.43538 2.0627,-4.46034 2.1407,-6.09502 2.4277,-50.85846 l 0.2965,-46.25 h 7.4535 7.4535 v 40.92764 c 0,23.76197 -0.4515,44.17351 -1.0764,48.66669 -3.0588,21.99144 -12.7575,31.1735 -33.7709,31.97191 -5.309,0.20172 -11.342,-0.0615 -13.4067,-0.58496 z m 386.9524,-0.0135 c -16.9807,-4.27878 -24.5339,-14.22823 -26.8417,-35.35765 -1.2996,-11.89822 -0.5346,-54.94708 1.091,-61.4015 4.2611,-16.91781 14.8064,-25.01876 33.819,-25.98007 12.9834,-0.65647 21.5659,2.08795 28.8315,9.21942 9.725,9.54559 11.8445,20.6685 11.1446,58.48788 -0.385,20.80091 -0.7624,25.59773 -2.4635,31.31054 -3.4892,11.71818 -8.9802,17.90683 -19.4703,21.94423 -6.0615,2.33294 -20.1102,3.28913 -26.1106,1.77715 z m 21.9222,-15.53388 c 7.7704,-5.80144 9.4979,-12.64524 10.12,-40.09395 0.6749,-29.77753 -1.0984,-41.40949 -7.3716,-48.35316 -2.7635,-3.05883 -4.6391,-4.10861 -8.9335,-5.00012 -7.0038,-1.45399 -14.93,0.062 -18.7257,3.58161 -7.064,6.55004 -8.6948,14.88375 -8.6948,44.43176 0,29.0625 1.5864,37.57879 8.1381,43.68993 3.7203,3.47005 6.8079,4.30056 15.0293,4.04251 5.9352,-0.1863 8.3093,-0.7091 10.4382,-2.29858 z m -337.954,13.89947 c -0.3666,-0.36667 -0.6666,-27.36667 -0.6666,-60 v -59.33333 l 21.25,0.0156 c 30.3846,0.0223 36.9783,2.11003 42.75,13.53545 2.3119,4.57668 2.5,6.00197 2.5,18.94893 0,13.26158 -0.1456,14.29649 -2.7606,19.62134 -5.2522,10.69486 -13.0286,13.87866 -33.8984,13.87866 h -13.841 v 27 27 h -7.3334 c -4.0333,0 -7.6333,-0.3 -8,-0.66667 z m 43.3052,-69.16344 c 5.2337,-2.66414 7.1493,-7.34665 7.1777,-17.54582 0.045,-16.15948 -4.0977,-19.62407 -23.4652,-19.62407 h -11.6843 v 19.33333 c 0,10.63333 0.3375,19.68725 0.75,20.11982 1.4225,1.49177 23.4324,-0.35434 27.2218,-2.28326 z m 40.6948,69.16344 c -0.3666,-0.36667 -0.6666,-27.36667 -0.6666,-60 v -59.33333 h 30.0477 30.0477 l -0.2977,6.25 -0.2977,6.25 -21.7715,0.26956 -21.7716,0.26956 0.2716,19.23044 0.2715,19.23044 21.2972,0.27002 21.2972,0.27003 -0.2972,6.22997 -0.2972,6.22998 -21.25,0.26988 -21.25,0.26989 v 20.98011 20.98012 h 22 22 v 6.5 6.5 h -29.3334 c -16.1333,0 -29.6333,-0.3 -30,-0.66667 z m 77,0 c -0.3666,-0.36667 -0.6666,-27.40815 -0.6666,-60.09219 v -59.42552 l 23.75,0.44451 c 14.31,0.26783 25.2305,0.91659 27.4747,1.63222 5.7562,1.83549 11.8673,7.0829 14.6827,12.60765 3.5383,6.94333 3.665,20.50794 0.2615,28 -2.7937,6.14978 -7.0864,10.70808 -12.2966,13.05756 l -3.9537,1.78286 5.2907,2.57979 c 4.3317,2.1122 5.7321,3.47058 7.7261,7.49446 2.2422,4.52473 2.4913,6.50831 3.1392,25 0.3871,11.04693 1.179,21.57141 1.7598,23.38773 1.3175,4.12024 0.7404,4.39493 -8.3961,3.99672 l -6.8631,-0.29912 -0.7973,-3.5 c -0.4384,-1.925 -1.1801,-12.06344 -1.648,-22.52986 -1.2285,-27.47665 -2.0171,-28.47014 -22.5978,-28.47014 h -11.5321 v 27.5 27.5 h -7.3334 c -4.0333,0 -7.6333,-0.3 -8,-0.66667 z m 37.3133,-68.41449 c 9.572,-2.20553 14.9717,-9.56497 14.9816,-20.41884 0.01,-6.80614 -2.5531,-12.39572 -7.2832,-15.90599 -2.4665,-1.83043 -4.512,-2.13783 -16.25,-2.44213 l -13.4283,-0.34811 v 20.09811 20.09812 l 8.75,-0.0245 c 4.8125,-0.0135 10.766,-0.48896 13.2299,-1.05671 z m 53.7251,68.45286 c -0.3878,-0.38777 -0.7051,-27.40504 -0.7051,-60.03837 v -59.33333 h 8.5079 8.5079 l -0.2579,59.75 -0.2579,59.75 -7.5449,0.28837 c -4.1498,0.1586 -7.8623,-0.0289 -8.25,-0.41667 z m 132.9616,-0.0384 c -0.3667,-0.36667 -0.6667,-27.36667 -0.6667,-60 v -59.33333 h 20.3164 c 27.2813,0 33.2641,1.18066 41.1738,8.1255 2.6479,2.3249 4.0435,4.82109 5.647,10.10016 4.7412,15.60947 -1.0458,31.82187 -13.3372,37.36454 l -4.0048,1.8059 5.3524,2.55195 c 4.1147,1.9618 5.9071,3.5657 7.7512,6.93572 2.234,4.08288 2.4484,5.83311 3.1239,25.5 0.3988,11.61392 1.2269,22.36978 1.8401,23.9019 1.4225,3.55423 0.5812,3.90637 -8.3935,3.51345 -6.6344,-0.29046 -6.8575,-0.38605 -7.6993,-3.29912 -0.4768,-1.65 -1.218,-11.775 -1.647,-22.5 -1.1208,-28.01723 -1.8864,-29 -22.5908,-29 h -11.5322 v 27.5 27.5 h -7.3333 c -4.0333,0 -7.6333,-0.3 -8,-0.66667 z m 37.3422,-68.42866 c 6.3823,-1.36876 12.2837,-6.64482 13.8749,-12.40467 2.6407,-9.55868 0.1895,-19.1722 -6.0172,-23.59894 -3.0703,-2.18978 -4.5325,-2.4317 -16.6166,-2.74918 l -13.25,-0.34811 v 20.09811 20.09812 h 8.4508 c 4.6479,0 10.7491,-0.4929 13.5581,-1.09533 z m -412.8694,-88.99415 c -6.6906,-2.04069 -14.1573,-7.96723 -18.1241,-14.38578 -1.0838,-1.75357 -2.7522,-6.0765 -3.7075,-9.60652 -1.5257,-5.63744 -1.7413,-11.89243 -1.7724,-51.41821 l -0.035,-45 7.1789,-0.29238 7.179,-0.29238 0.3584,46.29238 c 0.3103,40.07918 0.5761,46.76213 1.9802,49.79238 4.249,9.16979 10.5704,13.25 20.5283,13.25 8.6333,0 14.6943,-3.14079 18.7663,-9.7246 l 3.0089,-4.86507 0.3039,-47.33017 0.304,-47.33016 h 7.5085 7.5086 l -0.3125,46.75 -0.3125,46.75 -2.6371,7.21358 c -3.4198,9.35436 -7.3575,14.19768 -14.4676,17.79508 -5.2824,2.67265 -6.7504,2.93369 -17.8259,3.16968 -6.6382,0.14144 -13.5817,-0.20408 -15.43,-0.76783 z m 97.1906,0.19083 c -4.2271,-1.08814 -11.2917,-4.78847 -14.0959,-7.38317 -4.2007,-3.88694 -7.4227,-10.86226 -9.5,-20.56683 -1.7587,-8.21614 -2.0684,-13.22027 -2.0827,-33.65134 -0.017,-24.69157 0.9092,-32.72603 4.8654,-42.19458 4.9934,-11.95078 16.0124,-18.26633 31.9176,-18.29356 18.5819,-0.0318 29.8182,8.76111 32.7045,25.59268 1.6831,9.81504 1.3187,10.39546 -6.5257,10.39546 -9.0311,0 -9.6091,-0.35135 -9.6352,-5.85699 -0.029,-6.04292 -2.9074,-12.24448 -7.055,-15.19783 -2.6859,-1.91253 -4.5744,-2.35695 -10.0157,-2.35695 -5.6434,0 -7.3156,0.42376 -10.5565,2.67512 -7.8068,5.42326 -9.3395,11.28276 -10.0633,38.46993 -0.5537,20.79812 0.4923,34.79489 3.3091,44.28012 3.374,11.36159 17.6319,16.3506 27.576,9.64923 4.8233,-3.25038 7.0349,-7.83128 7.6011,-15.74355 l 0.495,-6.91908 h 8.5103 8.5102 l -0.6032,6.25 c -1.3657,14.15116 -6.8067,23.22611 -17.0627,28.45849 -4.3285,2.20833 -6.6747,2.65998 -15.1233,2.91135 -5.5,0.16364 -11.4265,-0.0697 -13.17,-0.5185 z m 185.6205,-0.40863 c -12.8957,-3.63304 -20.3798,-13.25165 -23.1034,-29.69271 -1.6479,-9.94732 -1.7112,-54.4755 -0.089,-62.33384 2.7762,-13.44575 9.1218,-22.41427 19.119,-27.02195 3.8636,-1.78068 6.5104,-2.13157 16.1224,-2.13733 10.5916,-0.006 11.9526,0.21537 17.2296,2.80668 3.1513,1.54746 7.0979,4.47246 8.7703,6.5 4.0278,4.88309 7.1064,13.36208 7.3239,20.1712 l 0.1762,5.51524 h -8 -8 l -0.6222,-5.0979 c -1.072,-8.78265 -2.708,-12.26135 -7.148,-15.19961 -3.3414,-2.21127 -5.2174,-2.70249 -10.3206,-2.70249 -5.3194,0 -6.8616,0.44131 -10.484,3 -8.1869,5.78296 -9.8442,13.15747 -9.8943,44.02623 -0.038,23.40288 1.169,34.16707 4.6354,41.33845 2.2528,4.66065 3.3116,5.69366 8.0687,7.87149 4.3565,1.99452 6.4002,2.38008 10.0001,1.88666 9.7488,-1.33623 14.9191,-7.71686 16.011,-19.75942 l 0.5317,-5.86341 h 8.4903 8.4903 l -0.6571,6.25 c -1.4598,13.88585 -7.3394,23.51775 -17.3437,28.4124 -4.8196,2.35801 -7.1505,2.82471 -15.2242,3.04815 -5.5592,0.15386 -11.4299,-0.27046 -14.0828,-1.01784 z m 127.0494,-0.21332 c -9.6237,-3.20823 -17.6976,-11.35485 -20.4547,-20.63902 -4.3289,-14.57694 -4.7209,-60.73532 -0.647,-76.18544 4.4102,-16.7258 15.8011,-24.82623 34.8792,-24.80372 22.79,0.0269 34.1893,9.71752 37.1742,31.60212 1.4065,10.31238 1.41,49.75754 0.01,60.05584 -1.9388,14.2137 -6.7809,21.98187 -17.1555,27.52299 -5.957,3.18167 -6.9298,3.38148 -17.8014,3.65648 -8.2248,0.20805 -12.7815,-0.13634 -16,-1.20925 z m 23.5786,-13.37573 c 9.7102,-4.41013 11.5323,-10.51096 12.1654,-40.73317 0.7121,-33.99274 -1.2658,-44.85303 -9.2822,-50.96746 -3.1834,-2.42807 -4.889,-2.93296 -10.8688,-3.21728 -9.8163,-0.46673 -14.9826,2.25027 -18.8079,9.89123 -3.6318,7.25448 -4.7927,16.96774 -4.7502,39.74537 0.058,31.03114 2.6575,39.8184 13.4651,45.51601 4.1105,2.16697 13.0461,2.05096 18.0786,-0.2347 z m -628.5785,-46.60366 v -60.52977 l 29.75,0.26488 29.75,0.26489 0.2972,6.23074 0.2973,6.23074 -22.2973,0.26926 -22.2972,0.26926 v 19 19 l 21.25,0.26988 21.25,0.26989 v 6.48011 6.48012 h -19.9182 c -10.955,0 -20.63,0.27314 -21.5,0.60698 -1.3707,0.52602 -1.5818,3.32505 -1.5818,20.98087 v 20.37388 l 22.25,0.26913 22.25,0.26914 v 6.5 6.5 l -29.75,0.26488 -29.75,0.26488 z m 77.5201,59.40865 c -0.2965,-0.77476 -0.4223,-27.95865 -0.2795,-60.40865 l 0.2594,-59 23.5,0.0985 c 25.7738,0.10802 29.1148,0.62435 36.6573,5.66511 3.8672,2.5845 5.6019,4.74712 8.612,10.73641 3.6325,7.22767 3.8089,8.06281 4.8598,23 1.1343,16.1228 0.5265,43.26975 -1.1688,52.20948 -2.5188,13.28125 -9.8798,22.44982 -20.7096,25.79479 -8.6848,2.68248 -50.8392,4.23433 -51.7306,1.90438 z m 42.6807,-14.03304 c 6.4705,-1.37291 11.8659,-6.47163 13.7656,-13.00864 1.6925,-5.82431 2.5636,-49.89843 1.1821,-59.80751 -1.239,-8.88637 -4.681,-14.55235 -10.6672,-17.55946 -3.3933,-1.70463 -5.975,-2 -17.4813,-2 h -13.5 l -0.2607,45.5 c -0.1433,25.025 -0.045,46.0625 0.2187,46.75 0.621,1.61953 19.2887,1.70721 26.7428,0.12561 z m 228.7992,13.18042 c 0,-1.87369 20.5881,-68.48809 34.4779,-111.55603 l 2.2576,-7 9.4582,-0.28412 9.4581,-0.28411 1.5263,5.28411 c 0.8394,2.90626 3.9,12.93412 6.8013,22.28412 2.9012,9.35 6.2789,20.375 7.5058,24.5 2.2488,7.56051 9.6567,31.75638 16.2266,53 5.4938,17.764 5.8863,16 -3.5601,16 -9.3975,0 -8.8114,0.58262 -12.071,-12 -1.2111,-4.675 -2.8858,-10.6375 -3.7217,-13.25 l -1.5198,-4.75 h -20.8844 c -18.8766,0 -20.9719,0.16824 -21.7945,1.75 -0.5005,0.9625 -2.3952,7.15 -4.2104,13.75 -1.8152,6.6 -3.7266,12.5625 -4.2476,13.25 -0.6073,0.80144 -3.5946,1.25 -8.3248,1.25 -6.64,0 -7.3775,-0.19435 -7.3775,-1.94397 z m 61.5222,-46.80603 c -0.7132,-2.6125 -4.2725,-15.01003 -7.9095,-27.55005 -3.637,-12.54003 -6.6127,-23.00253 -6.6127,-23.25 0,-0.24748 -0.3596,-0.44995 -0.7991,-0.44995 -0.9631,0 -1.93,2.72998 -6.7295,19 -2.0281,6.875 -5.2138,17.48239 -7.0794,23.57198 -1.8656,6.0896 -3.392,11.6021 -3.392,12.25 0,0.85758 4.5997,1.17802 16.9095,1.17802 h 16.9094 z m 134.4777,-11.75 v -60.58413 l 7.75,0.29206 7.75,0.29207 v 60 60 l -7.75,0.29206 -7.75,0.29206 z m 133.4592,59.25 c -0.263,-0.6875 -0.3614,-27.8 -0.2186,-60.25 l 0.2594,-59 11,-0.25909 11,-0.25908 2.204,5.25908 c 1.2122,2.8925 10.7633,25.86614 21.2246,51.05255 10.4614,25.1864 19.3696,46.41758 19.7961,47.18039 0.4264,0.76282 0.7753,-22.09424 0.7753,-50.79346 v -52.18039 l 7.2579,-0.29397 7.2578,-0.29397 -0.2578,60.29397 -0.2579,60.29397 h -10.4691 -10.4692 l -3.683,-8.5 c -2.0257,-4.675 -6.0387,-14.125 -8.9178,-21 -2.8791,-6.875 -8.4933,-20.15 -12.476,-29.5 -15.5164,-36.42706 -18.4849,-43.54388 -18.4849,-44.31679 0,-0.44053 -0.5625,-1.57077 -1.25,-2.51164 -1.0043,-1.37444 -1.1885,8.9075 -0.9373,52.30887 l 0.3126,54.01956 h -6.594 c -4.3536,0 -6.7565,-0.42472 -7.0721,-1.25 z m -69.4592,-132.01787 c 0,-0.69733 1.0449,-2.83483 2.322,-4.75 1.2771,-1.91517 4.6859,-7.64463 7.5751,-12.73213 l 5.2532,-9.25 h 7.9816 c 9.3652,0 9.9027,-1.86331 -4.5698,15.8421 -9.9133,12.12776 -9.9486,12.1579 -14.25,12.1579 -2.8154,0 -4.3121,-0.44007 -4.3121,-1.26787 z"
     id="path10" /></svg>
